<!DOCTYPE svg PUBLIC "-//W3C//DTD SVG 1.1//EN" "http://www.w3.org/Graphics/SVG/1.1/DTD/svg11.dtd">
<!-- Uploaded to: SVG Repo, www.svgrepo.com, Transformed by: SVG Repo Mixer Tools -->
<svg width="800px" height="800px" viewBox="-51.2 -51.2 614.40 614.40" id="icons" xmlns="http://www.w3.org/2000/svg" fill="#000000">
<g id="SVGRepo_bgCarrier" stroke-width="0">
<path transform="translate(-51.2, -51.2), scale(38.4)" fill="#ffffff" d="M9.166.33a2.25 2.25 0 00-2.332 0l-5.25 3.182A2.25 2.25 0 00.5 5.436v5.128a2.25 2.25 0 001.084 1.924l5.25 3.182a2.25 2.25 0 002.332 0l5.25-3.182a2.25 2.25 0 001.084-1.924V5.436a2.25 2.25 0 00-1.084-1.924L9.166.33z" strokewidth="0"/>
</g>
<g id="SVGRepo_tracerCarrier" stroke-linecap="round" stroke-linejoin="round"/>
<g id="SVGRepo_iconCarrier">
<path d="M229.73,45.88,37.53,327.79a31.79,31.79,0,0,0,11.31,46L241,476.26a31.77,31.77,0,0,0,29.92,0l192.2-102.51a31.79,31.79,0,0,0,11.31-46L282.27,45.88A31.8,31.8,0,0,0,229.73,45.88Z" fill="none" stroke="#000000" stroke-linecap="round" stroke-linejoin="round" stroke-width="15.36"/>
<line x1="256" y1="32" x2="256" y2="480" fill="none" stroke="#000000" stroke-linecap="round" stroke-linejoin="round" stroke-width="15.36"/>
</g>
</svg>